<mxfile host="Electron" agent="Mozilla/5.0 (Windows NT 10.0; Win64; x64) AppleWebKit/537.36 (KHTML, like Gecko) draw.io/26.2.2 Chrome/134.0.6998.178 Electron/35.1.2 Safari/537.36" version="26.2.2">
  <diagram name="Page-1" id="2YBvvXClWsGukQMizWep">
    <mxGraphModel dx="788" dy="524" grid="1" gridSize="10" guides="1" tooltips="1" connect="1" arrows="1" fold="1" page="1" pageScale="1" pageWidth="850" pageHeight="1100" math="0" shadow="0">
      <root>
        <mxCell id="0" />
        <mxCell id="1" parent="0" />
        <mxCell id="BqTtxv4KJoI9e_aRz81Z-5" style="edgeStyle=orthogonalEdgeStyle;rounded=0;orthogonalLoop=1;jettySize=auto;html=1;exitX=0.5;exitY=1;exitDx=0;exitDy=0;" edge="1" parent="1" source="BqTtxv4KJoI9e_aRz81Z-1">
          <mxGeometry relative="1" as="geometry">
            <mxPoint x="425" y="170" as="targetPoint" />
          </mxGeometry>
        </mxCell>
        <mxCell id="BqTtxv4KJoI9e_aRz81Z-1" value="" style="ellipse;html=1;shape=startState;fillColor=#000000;strokeColor=#ff0000;" vertex="1" parent="1">
          <mxGeometry x="410" y="100" width="30" height="30" as="geometry" />
        </mxCell>
        <mxCell id="BqTtxv4KJoI9e_aRz81Z-6" style="edgeStyle=orthogonalEdgeStyle;rounded=0;orthogonalLoop=1;jettySize=auto;html=1;exitX=0.5;exitY=1;exitDx=0;exitDy=0;" edge="1" parent="1" source="BqTtxv4KJoI9e_aRz81Z-3" target="BqTtxv4KJoI9e_aRz81Z-7">
          <mxGeometry relative="1" as="geometry">
            <mxPoint x="425" y="250" as="targetPoint" />
          </mxGeometry>
        </mxCell>
        <mxCell id="BqTtxv4KJoI9e_aRz81Z-3" value="Create Job Description Draft" style="rounded=1;whiteSpace=wrap;html=1;arcSize=40;fontColor=#000000;fillColor=#ffffc0;strokeColor=#ff0000;" vertex="1" parent="1">
          <mxGeometry x="365" y="170" width="120" height="40" as="geometry" />
        </mxCell>
        <mxCell id="BqTtxv4KJoI9e_aRz81Z-9" style="edgeStyle=orthogonalEdgeStyle;rounded=0;orthogonalLoop=1;jettySize=auto;html=1;exitX=0;exitY=0.5;exitDx=0;exitDy=0;" edge="1" parent="1" source="BqTtxv4KJoI9e_aRz81Z-7" target="BqTtxv4KJoI9e_aRz81Z-10">
          <mxGeometry relative="1" as="geometry">
            <mxPoint x="280" y="330" as="targetPoint" />
          </mxGeometry>
        </mxCell>
        <mxCell id="BqTtxv4KJoI9e_aRz81Z-11" style="edgeStyle=orthogonalEdgeStyle;rounded=0;orthogonalLoop=1;jettySize=auto;html=1;exitX=1;exitY=0.5;exitDx=0;exitDy=0;" edge="1" parent="1" source="BqTtxv4KJoI9e_aRz81Z-7" target="BqTtxv4KJoI9e_aRz81Z-12">
          <mxGeometry relative="1" as="geometry">
            <mxPoint x="630" y="320" as="targetPoint" />
          </mxGeometry>
        </mxCell>
        <mxCell id="BqTtxv4KJoI9e_aRz81Z-7" value="Review Job Description" style="rounded=1;whiteSpace=wrap;html=1;arcSize=40;fontColor=#000000;fillColor=#ffffc0;strokeColor=#ff0000;" vertex="1" parent="1">
          <mxGeometry x="365" y="250" width="120" height="40" as="geometry" />
        </mxCell>
        <mxCell id="BqTtxv4KJoI9e_aRz81Z-16" style="edgeStyle=orthogonalEdgeStyle;rounded=0;orthogonalLoop=1;jettySize=auto;html=1;exitX=0.75;exitY=1;exitDx=0;exitDy=0;" edge="1" parent="1" source="BqTtxv4KJoI9e_aRz81Z-10" target="BqTtxv4KJoI9e_aRz81Z-17">
          <mxGeometry relative="1" as="geometry">
            <mxPoint x="270" y="420" as="targetPoint" />
          </mxGeometry>
        </mxCell>
        <mxCell id="BqTtxv4KJoI9e_aRz81Z-10" value="Reject Job Description" style="rounded=1;whiteSpace=wrap;html=1;arcSize=40;fontColor=#000000;fillColor=#ffffc0;strokeColor=#ff0000;" vertex="1" parent="1">
          <mxGeometry x="180" y="320" width="120" height="40" as="geometry" />
        </mxCell>
        <mxCell id="BqTtxv4KJoI9e_aRz81Z-20" style="edgeStyle=orthogonalEdgeStyle;rounded=0;orthogonalLoop=1;jettySize=auto;html=1;exitX=0.5;exitY=1;exitDx=0;exitDy=0;" edge="1" parent="1" source="BqTtxv4KJoI9e_aRz81Z-12" target="BqTtxv4KJoI9e_aRz81Z-21">
          <mxGeometry relative="1" as="geometry">
            <mxPoint x="630" y="410" as="targetPoint" />
          </mxGeometry>
        </mxCell>
        <mxCell id="BqTtxv4KJoI9e_aRz81Z-12" value="Approve Job Description" style="rounded=1;whiteSpace=wrap;html=1;arcSize=40;fontColor=#000000;fillColor=#ffffc0;strokeColor=#ff0000;" vertex="1" parent="1">
          <mxGeometry x="570" y="320" width="120" height="40" as="geometry" />
        </mxCell>
        <mxCell id="BqTtxv4KJoI9e_aRz81Z-19" style="edgeStyle=orthogonalEdgeStyle;rounded=0;orthogonalLoop=1;jettySize=auto;html=1;exitX=0.933;exitY=0.1;exitDx=0;exitDy=0;entryX=0.5;entryY=1;entryDx=0;entryDy=0;exitPerimeter=0;" edge="1" parent="1" source="BqTtxv4KJoI9e_aRz81Z-17" target="BqTtxv4KJoI9e_aRz81Z-7">
          <mxGeometry relative="1" as="geometry">
            <Array as="points">
              <mxPoint x="322" y="400" />
              <mxPoint x="425" y="400" />
            </Array>
          </mxGeometry>
        </mxCell>
        <mxCell id="BqTtxv4KJoI9e_aRz81Z-17" value="Revise" style="rounded=1;whiteSpace=wrap;html=1;arcSize=40;fontColor=#000000;fillColor=#ffffc0;strokeColor=#ff0000;" vertex="1" parent="1">
          <mxGeometry x="210" y="400" width="120" height="40" as="geometry" />
        </mxCell>
        <mxCell id="BqTtxv4KJoI9e_aRz81Z-22" style="edgeStyle=orthogonalEdgeStyle;rounded=0;orthogonalLoop=1;jettySize=auto;html=1;exitX=0.5;exitY=1;exitDx=0;exitDy=0;" edge="1" parent="1" source="BqTtxv4KJoI9e_aRz81Z-21" target="BqTtxv4KJoI9e_aRz81Z-23">
          <mxGeometry relative="1" as="geometry">
            <mxPoint x="630" y="490" as="targetPoint" />
          </mxGeometry>
        </mxCell>
        <mxCell id="BqTtxv4KJoI9e_aRz81Z-21" value="Publish Job Description" style="rounded=1;whiteSpace=wrap;html=1;arcSize=40;fontColor=#000000;fillColor=#ffffc0;strokeColor=#ff0000;" vertex="1" parent="1">
          <mxGeometry x="570" y="400" width="120" height="40" as="geometry" />
        </mxCell>
        <mxCell id="BqTtxv4KJoI9e_aRz81Z-31" style="edgeStyle=orthogonalEdgeStyle;rounded=0;orthogonalLoop=1;jettySize=auto;html=1;exitX=0.5;exitY=1;exitDx=0;exitDy=0;" edge="1" parent="1" source="BqTtxv4KJoI9e_aRz81Z-23" target="BqTtxv4KJoI9e_aRz81Z-32">
          <mxGeometry relative="1" as="geometry">
            <mxPoint x="630" y="560" as="targetPoint" />
          </mxGeometry>
        </mxCell>
        <mxCell id="BqTtxv4KJoI9e_aRz81Z-34" style="edgeStyle=orthogonalEdgeStyle;rounded=0;orthogonalLoop=1;jettySize=auto;html=1;exitX=1;exitY=0.5;exitDx=0;exitDy=0;" edge="1" parent="1" source="BqTtxv4KJoI9e_aRz81Z-23" target="BqTtxv4KJoI9e_aRz81Z-35">
          <mxGeometry relative="1" as="geometry">
            <mxPoint x="790" y="540" as="targetPoint" />
          </mxGeometry>
        </mxCell>
        <mxCell id="BqTtxv4KJoI9e_aRz81Z-38" style="edgeStyle=orthogonalEdgeStyle;rounded=0;orthogonalLoop=1;jettySize=auto;html=1;exitX=0;exitY=0.5;exitDx=0;exitDy=0;entryX=0;entryY=0.5;entryDx=0;entryDy=0;" edge="1" parent="1" target="BqTtxv4KJoI9e_aRz81Z-37">
          <mxGeometry relative="1" as="geometry">
            <mxPoint x="580" y="500" as="sourcePoint" />
            <mxPoint x="580" y="660" as="targetPoint" />
            <Array as="points">
              <mxPoint x="520" y="500" />
              <mxPoint x="520" y="660" />
            </Array>
          </mxGeometry>
        </mxCell>
        <mxCell id="BqTtxv4KJoI9e_aRz81Z-23" value="Activate job Posting" style="rounded=1;whiteSpace=wrap;html=1;arcSize=40;fontColor=#000000;fillColor=#ffffc0;strokeColor=#ff0000;" vertex="1" parent="1">
          <mxGeometry x="570" y="480" width="120" height="40" as="geometry" />
        </mxCell>
        <mxCell id="BqTtxv4KJoI9e_aRz81Z-36" style="edgeStyle=orthogonalEdgeStyle;rounded=0;orthogonalLoop=1;jettySize=auto;html=1;exitX=0.5;exitY=1;exitDx=0;exitDy=0;" edge="1" parent="1" source="BqTtxv4KJoI9e_aRz81Z-32" target="BqTtxv4KJoI9e_aRz81Z-37">
          <mxGeometry relative="1" as="geometry">
            <mxPoint x="630" y="650" as="targetPoint" />
          </mxGeometry>
        </mxCell>
        <mxCell id="BqTtxv4KJoI9e_aRz81Z-32" value="Track Application" style="rounded=1;whiteSpace=wrap;html=1;arcSize=40;fontColor=#000000;fillColor=#ffffc0;strokeColor=#ff0000;" vertex="1" parent="1">
          <mxGeometry x="570" y="560" width="120" height="40" as="geometry" />
        </mxCell>
        <mxCell id="BqTtxv4KJoI9e_aRz81Z-39" style="edgeStyle=orthogonalEdgeStyle;rounded=0;orthogonalLoop=1;jettySize=auto;html=1;exitX=0.5;exitY=1;exitDx=0;exitDy=0;entryX=1;entryY=0.5;entryDx=0;entryDy=0;" edge="1" parent="1" source="BqTtxv4KJoI9e_aRz81Z-35" target="BqTtxv4KJoI9e_aRz81Z-37">
          <mxGeometry relative="1" as="geometry" />
        </mxCell>
        <mxCell id="BqTtxv4KJoI9e_aRz81Z-35" value="Monitor Descrition" style="rounded=1;whiteSpace=wrap;html=1;arcSize=40;fontColor=#000000;fillColor=#ffffc0;strokeColor=#ff0000;" vertex="1" parent="1">
          <mxGeometry x="770" y="530" width="120" height="40" as="geometry" />
        </mxCell>
        <mxCell id="BqTtxv4KJoI9e_aRz81Z-40" style="edgeStyle=orthogonalEdgeStyle;rounded=0;orthogonalLoop=1;jettySize=auto;html=1;exitX=0.5;exitY=1;exitDx=0;exitDy=0;" edge="1" parent="1" source="BqTtxv4KJoI9e_aRz81Z-37" target="BqTtxv4KJoI9e_aRz81Z-41">
          <mxGeometry relative="1" as="geometry">
            <mxPoint x="630" y="720" as="targetPoint" />
          </mxGeometry>
        </mxCell>
        <mxCell id="BqTtxv4KJoI9e_aRz81Z-37" value="Archive Job Description" style="rounded=1;whiteSpace=wrap;html=1;arcSize=40;fontColor=#000000;fillColor=#ffffc0;strokeColor=#ff0000;" vertex="1" parent="1">
          <mxGeometry x="570" y="640" width="120" height="40" as="geometry" />
        </mxCell>
        <mxCell id="BqTtxv4KJoI9e_aRz81Z-41" value="" style="ellipse;html=1;shape=endState;fillColor=#000000;strokeColor=#ff0000;" vertex="1" parent="1">
          <mxGeometry x="615" y="720" width="30" height="30" as="geometry" />
        </mxCell>
      </root>
    </mxGraphModel>
  </diagram>
</mxfile>
